<svg width="213" height="32" viewBox="0 0 213 32" fill="none" xmlns="http://www.w3.org/2000/svg">
<path d="M19.5947 11.0923H11.3763L8.80563 6.69963H22.1653L26.0576 6.7798e-05H3.97588C3.28094 -0.000475333 2.598 0.181099 1.99522 0.526673C1.39244 0.872247 0.890887 1.36974 0.540616 1.9695C0.186745 2.56531 0 3.24537 0 3.93821C0 4.63105 0.186745 5.3111 0.540616 5.90691L14.6208 30.0608C15.7271 31.9343 18.1769 32.5583 20.075 31.4543C20.6533 31.1111 21.1398 30.6329 21.4928 30.0608L21.9484 29.2681L15.4855 18.1279L19.5947 11.0923Z" fill="#6A7282"/>
<path d="M35.6225 1.96949C35.2743 1.36752 34.7731 0.868271 34.1695 0.52239C33.5659 0.17651 32.8815 -0.00369492 32.1858 5.74245e-05H31.2251L20.6514 18.1279L24.5452 24.8274L35.6225 5.8589C35.9647 5.26783 36.1449 4.59705 36.1449 3.9142C36.1449 3.23134 35.9647 2.56056 35.6225 1.96949Z" fill="#6A7282"/>
<path d="M156.197 18.7518C156.096 18.7538 155.997 18.7872 155.915 18.8474C155.834 18.9075 155.772 18.9915 155.74 19.0878C154.876 21.898 153.145 23.7714 150.503 23.7714C147.018 23.7714 144.4 20.4333 144.4 16.0144C144.4 11.453 146.922 8.25887 150.503 8.25887C153.218 8.25887 154.924 10.0596 155.765 12.9177C155.797 13.0136 155.858 13.0973 155.94 13.1572C156.021 13.2171 156.119 13.2503 156.221 13.2523H162.324C162.387 13.2524 162.449 13.2388 162.507 13.2126C162.564 13.1863 162.615 13.1479 162.656 13.1001C162.697 13.0523 162.727 12.9961 162.745 12.9355C162.762 12.8749 162.766 12.8113 162.756 12.749C161.411 5.7629 156.005 3.19274 150.503 3.19274C144.231 3.19274 137.551 6.57889 137.551 16.0391C137.551 25.4994 144.255 28.8841 150.503 28.8841C156.005 28.8841 161.411 26.2907 162.756 19.3046C162.768 19.2419 162.766 19.1773 162.75 19.1156C162.733 19.0539 162.703 18.9966 162.662 18.9481C162.62 18.8996 162.568 18.8611 162.51 18.8354C162.451 18.8098 162.388 18.7976 162.324 18.7998H156.197V18.7518ZM132.865 3.88946H127.027C126.893 3.89022 126.765 3.94364 126.67 4.03813C126.576 4.13262 126.522 4.26056 126.522 4.39418V27.6361C126.522 27.8994 126.737 28.1394 127.027 28.1394H132.864C132.997 28.1386 133.125 28.0854 133.22 27.9912C133.314 27.897 133.368 27.7695 133.369 27.6361V4.39273C133.37 4.3262 133.358 4.26005 133.334 4.19827C133.309 4.13649 133.272 4.08037 133.225 4.03331C133.178 3.98626 133.122 3.94925 133.06 3.92452C132.998 3.89979 132.932 3.88787 132.865 3.88946ZM60.4437 8.01887V4.39418C60.443 4.26056 60.3895 4.13262 60.295 4.03813C60.2004 3.94364 60.0724 3.89022 59.9386 3.88946H45.6415C45.5081 3.8906 45.3804 3.94419 45.2862 4.03864C45.1919 4.13309 45.1387 4.26081 45.1379 4.39418V27.6361C45.1379 27.8994 45.3533 28.1394 45.6415 28.1394H51.4815C51.6147 28.1382 51.7422 28.0848 51.8364 27.9907C51.9306 27.8966 51.984 27.7692 51.9851 27.6361V18.5598C51.9863 18.4263 52.0399 18.2986 52.1343 18.2042C52.2288 18.1098 52.3566 18.0563 52.4902 18.0551H59.9634C60.0966 18.054 60.2241 18.0006 60.3183 17.9065C60.4125 17.8123 60.4659 17.685 60.467 17.5519V13.949C60.4663 13.8156 60.413 13.6879 60.3188 13.5934C60.2245 13.499 60.0969 13.4454 59.9634 13.4443H52.4888C52.3551 13.4435 52.227 13.3901 52.1325 13.2956C52.0379 13.2011 51.9844 13.0732 51.9837 12.9395V9.00359C51.9848 8.87008 52.0384 8.74236 52.1329 8.64795C52.2274 8.55355 52.3552 8.5 52.4888 8.49886H59.9619C60.2021 8.49886 60.4423 8.28359 60.4423 8.01887H60.4437ZM105.185 4.39273V8.01887C105.186 8.15238 105.24 8.28009 105.334 8.3745C105.429 8.46891 105.557 8.52245 105.69 8.52359H109.655C109.919 8.52359 110.159 8.74032 110.159 9.02831V27.6841C110.159 27.9241 110.351 28.1394 110.616 28.1394H116.526C116.586 28.1396 116.645 28.1279 116.701 28.1051C116.756 28.0823 116.807 28.0488 116.849 28.0065C116.891 27.9643 116.925 27.914 116.948 27.8587C116.971 27.8033 116.983 27.744 116.983 27.6841V9.00359C116.984 8.87008 117.038 8.74236 117.132 8.64795C117.227 8.55355 117.354 8.5 117.488 8.49886H121.453C121.586 8.49772 121.714 8.44434 121.808 8.3502C121.902 8.25607 121.956 8.12872 121.957 7.9956V4.39273C121.956 4.25935 121.903 4.13163 121.809 4.03719C121.714 3.94274 121.587 3.88915 121.453 3.88801H105.714C105.402 3.88801 105.185 4.10473 105.185 4.39273ZM80.2664 24.01V27.6361C80.2652 27.7692 80.2118 27.8966 80.1176 27.9907C80.0234 28.0848 79.896 28.1382 79.7627 28.1394H65.4656C65.3322 28.1386 65.2043 28.0854 65.1098 27.9912C65.0153 27.897 64.9617 27.7695 64.9605 27.6361V4.39273C64.9605 4.13091 65.176 3.88946 65.4656 3.88946H71.3027C71.4365 3.89022 71.5647 3.94359 71.6595 4.03804C71.7543 4.13249 71.8081 4.26042 71.8092 4.39418V23.0267C71.8092 23.29 72.0247 23.53 72.3129 23.53H79.786C80.0262 23.5067 80.2664 23.722 80.2664 24.01ZM104.223 27.6594L97.6392 4.15418C97.6177 4.07615 97.5705 4.00761 97.5053 3.9596C97.4401 3.91158 97.3606 3.88688 97.2797 3.88946H90.118C90.0382 3.8915 89.9609 3.91798 89.8966 3.96532C89.8323 4.01267 89.7841 4.07859 89.7585 4.15418L83.1747 27.6594C83.1019 27.8994 83.2941 28.1161 83.5357 28.1161H89.7337C89.8171 28.1139 89.8974 28.0846 89.9626 28.0326C90.0277 27.9807 90.0741 27.9088 90.0947 27.8281L90.7206 24.8507C90.7549 24.6795 90.8481 24.5258 90.984 24.4161C91.1198 24.3063 91.2898 24.2476 91.4645 24.25H95.9099C96.2695 24.25 96.5824 24.49 96.6537 24.8507L97.2797 27.8281C97.303 27.9954 97.4718 28.1161 97.6392 28.1161H103.84C104.127 28.1161 104.296 27.8994 104.223 27.6594ZM91.9448 19.5198C91.7294 19.5198 91.5605 19.3046 91.6086 19.0878C92.0889 16.8319 93.53 9.9883 93.53 9.9883C93.5547 9.86758 93.6028 9.7963 93.6988 9.7963C93.8197 9.7963 93.8677 9.8923 93.8677 9.9883C93.8677 9.9883 95.3815 17.2159 95.7891 19.0878C95.8371 19.3046 95.6697 19.5198 95.4543 19.5198H91.9448ZM178.423 28.8361C172.152 28.8361 165.473 25.4514 165.473 15.9911C165.473 6.53089 172.176 3.14474 178.423 3.14474C184.695 3.14474 191.399 6.53089 191.399 15.9911C191.399 25.4514 184.695 28.8361 178.423 28.8361ZM178.423 8.23559C174.819 8.23559 172.32 11.4283 172.32 15.9911C172.32 20.4086 174.94 23.7467 178.423 23.7467C181.931 23.7467 184.551 20.4086 184.551 15.9911C184.575 11.4283 182.052 8.23559 178.423 8.23559ZM207.016 4.36945L206.968 15.5344C206.968 15.6552 206.8 15.7031 206.752 15.5824L200.409 4.13091C200.368 4.05797 200.309 3.99721 200.237 3.95499C200.165 3.91277 200.083 3.89064 200 3.89091H196.035C195.907 3.8913 195.786 3.94199 195.696 4.03193C195.606 4.12186 195.555 4.24373 195.554 4.37091V27.6608C195.554 27.9256 195.771 28.1408 196.035 28.1408H201.057C201.184 28.1404 201.306 28.0898 201.396 27.9999C201.487 27.91 201.538 27.7882 201.538 27.6608V16.3766C201.538 16.2559 201.706 16.2079 201.754 16.3286L208.049 27.9008C208.09 27.9738 208.149 28.0345 208.221 28.0768C208.293 28.119 208.375 28.1411 208.458 28.1408H212.518C212.646 28.1404 212.768 28.0898 212.858 27.9999C212.948 27.91 212.999 27.7882 213 27.6608V4.36945C212.999 4.24214 212.948 4.12027 212.858 4.03038C212.768 3.94049 212.646 3.88984 212.518 3.88946H207.496C207.369 3.88984 207.247 3.94054 207.157 4.03047C207.067 4.1204 207.016 4.24227 207.016 4.36945Z" fill="#6A7282"/>
</svg>
