<svg width="218" height="33" viewBox="0 0 218 33" fill="none" xmlns="http://www.w3.org/2000/svg">
<path d="M58.1022 20.7089C58.0045 20.6083 58.0747 20.4405 58.2152 20.4405H58.8139C58.8139 20.4405 58.8414 20.4405 58.8566 20.4405C64.0764 19.9098 68.4378 16.5427 68.4378 10.5679C68.4378 3.68414 62.876 0.503053 56.5049 0.503053H26.6648C26.2647 0.503053 25.9379 0.826347 25.9379 1.22894V31.7741C25.9379 32.1737 26.2617 32.5 26.6648 32.5H36.1941C36.5942 32.5 36.921 32.1767 36.921 31.7741V22.0204C36.921 21.6209 37.2448 21.2945 37.6479 21.2945H43.8419C44.7002 21.2945 45.5187 21.6636 46.0899 22.304L54.9136 32.253C55.103 32.3384 55.2679 32.4116 55.4573 32.497H68.0347C68.6791 32.497 69.0029 31.7223 68.5508 31.2617L58.1053 20.7089H58.1022ZM54.1287 14.1271H37.6449C37.2448 14.1271 36.918 13.8039 36.918 13.4013V8.77449C36.918 8.37495 37.2417 8.04861 37.6449 8.04861H53.8904C56.2208 8.04861 57.7418 9.18929 57.7418 10.9918C57.7418 13.081 56.3155 14.1241 54.1287 14.1241V14.1271Z" fill="#6A7282"/>
<path d="M178.544 0.503053H169.017C168.616 0.503053 168.29 0.828043 168.29 1.22894V21.505C168.29 21.9058 168.616 22.2308 169.017 22.2308H178.544C178.945 22.2308 179.27 21.9058 179.27 21.505V1.22894C179.27 0.828043 178.945 0.503053 178.544 0.503053Z" fill="#6A7282"/>
<path d="M178.544 26.5496H169.017C168.616 26.5496 168.29 26.8746 168.29 27.2754V31.7741C168.29 32.1749 168.616 32.5 169.017 32.5H178.544C178.945 32.5 179.27 32.1749 179.27 31.7741V27.2754C179.27 26.8746 178.945 26.5496 178.544 26.5496Z" fill="#6A7282"/>
<path d="M217.782 31.5423L205.522 15.3319C205.247 14.9689 205.271 14.4657 205.577 14.1302L217.155 1.44854C217.485 1.08559 217.229 0.503053 216.737 0.503053H206.719C206.453 0.503053 206.2 0.615901 206.023 0.811097L194.844 13.081H194.838C194.801 13.1207 194.752 13.1512 194.691 13.1512H194.288C194.181 13.1512 194.099 13.0658 194.096 12.9621V1.17099C194.096 0.801946 193.797 0.503053 193.427 0.503053H184.267C183.898 0.503053 183.598 0.801946 183.598 1.17099V31.7924C183.598 32.131 183.873 32.4055 184.212 32.4055H193.479C193.818 32.4055 194.093 32.131 194.093 31.7924V26.0921C194.093 25.8542 194.184 25.6224 194.346 25.4485L198.415 21.1024C198.415 21.1024 198.451 21.0475 198.534 21.0475H199.083C199.151 21.0475 199.19 21.1024 199.19 21.1024L207.388 32.0273C207.565 32.2652 207.846 32.4055 208.142 32.4055H217.348C217.794 32.4055 218.05 31.8961 217.778 31.5393L217.782 31.5423Z" fill="#6A7282"/>
<path d="M83.2601 7.81376H92.5786C92.9787 7.81376 93.3055 7.49047 93.3055 7.08788V1.22589C93.3055 0.826344 92.9818 0.5 92.5786 0.5H73.3032C72.9031 0.5 72.5763 0.823294 72.5763 1.22589V31.7711C72.5763 32.1706 72.9001 32.497 73.3032 32.497H92.5786C92.9787 32.497 93.3055 32.1737 93.3055 31.7711V25.9091C93.3055 25.5095 92.9818 25.1832 92.5786 25.1832H83.1929C82.7928 25.1832 82.466 24.8599 82.466 24.4573V20.6571C82.466 20.2209 82.8203 19.8641 83.2601 19.8641H92.5786C92.9787 19.8641 93.3055 19.5408 93.3055 19.1382V13.4196C93.3055 13.02 92.9818 12.6937 92.5786 12.6937H83.2601C82.8233 12.6937 82.466 12.3399 82.466 11.9007V8.59455C82.466 8.15841 82.8203 7.80156 83.2601 7.80156V7.81376Z" fill="#6A7282"/>
<path d="M108.311 7.81376H117.63C118.03 7.81376 118.357 7.49047 118.357 7.08788V1.22589C118.357 0.826344 118.033 0.5 117.63 0.5H98.3542C97.9541 0.5 97.6273 0.823294 97.6273 1.22589V31.7711C97.6273 32.1706 97.9511 32.497 98.3542 32.497H117.63C118.03 32.497 118.357 32.1737 118.357 31.7711V25.9091C118.357 25.5095 118.033 25.1832 117.63 25.1832H108.244C107.844 25.1832 107.517 24.8599 107.517 24.4573V20.6571C107.517 20.2209 107.871 19.8641 108.311 19.8641H117.63C118.03 19.8641 118.357 19.5408 118.357 19.1382V13.4196C118.357 13.02 118.033 12.6937 117.63 12.6937H108.311C107.874 12.6937 107.517 12.3399 107.517 11.9007V8.59455C107.517 8.15841 107.871 7.80156 108.311 7.80156V7.81376Z" fill="#6A7282"/>
<path d="M11.5738 7.81376H20.8923C21.2924 7.81376 21.6192 7.49047 21.6192 7.08788V1.22589C21.6192 0.826344 21.2955 0.5 20.8923 0.5H1.61692C1.21682 0.5 0.890015 0.823294 0.890015 1.22589V31.7711C0.890015 32.1706 1.21376 32.497 1.61692 32.497H10.0497C10.4498 32.497 10.7766 32.1737 10.7766 31.7711L10.7827 20.6601C10.7827 20.224 11.137 19.8671 11.5768 19.8671H20.8954C21.2955 19.8671 21.6223 19.5438 21.6223 19.1413V13.4226C21.6223 13.0231 21.2985 12.6967 20.8954 12.6967H11.5768C11.1401 12.6967 10.7827 12.3429 10.7827 11.9037V8.5976C10.7827 8.16146 11.137 7.80461 11.5768 7.80461L11.5738 7.81376Z" fill="#6A7282"/>
<path d="M123.408 0.503053C123.008 0.503053 122.681 0.826347 122.681 1.22894V31.7741C122.681 32.1737 123.005 32.5 123.408 32.5H132.938C133.338 32.5 133.664 32.1767 133.664 31.7741V21.6636C133.664 21.4592 133.829 21.2945 134.034 21.2945H152.308C159.632 21.2945 165.181 17.4821 165.181 10.7509C165.181 4.01963 159.632 0.503053 152.262 0.503053H123.408ZM150.872 14.1271H134.388C133.988 14.1271 133.661 13.8039 133.661 13.4013V8.77449C133.661 8.37495 133.985 8.05166 134.388 8.05166H150.634C152.964 8.05166 154.485 9.18929 154.485 10.9949C154.485 13.0841 153.059 14.1271 150.872 14.1271Z" fill="#6A7282"/>
</svg>
