<svg width="139" height="33" viewBox="0 0 139 33" fill="none" xmlns="http://www.w3.org/2000/svg">
<path d="M40.601 33V9.29019H45.316V12.1866H45.5294C45.7389 11.7224 46.042 11.2509 46.4386 10.772C46.8428 10.2855 47.3667 9.88135 48.0104 9.55951C48.6615 9.23024 49.4697 9.06561 50.4352 9.06561C51.6926 9.06561 52.8525 9.39488 53.9153 10.0535C54.978 10.7046 55.8276 11.6888 56.4637 13.0061C57.0999 14.3157 57.418 15.9585 57.418 17.9343C57.418 19.8577 57.1073 21.4818 56.4861 22.8065C55.8724 24.1238 55.0342 25.1229 53.9715 25.8039C52.9163 26.4775 51.7337 26.8143 50.4239 26.8143C49.496 26.8143 48.7064 26.6608 48.0553 26.354C47.4116 26.0472 46.884 25.6618 46.4723 25.1978C46.0607 24.7262 45.7464 24.251 45.5294 23.772H45.3833V33H40.601ZM45.2823 17.9119C45.2823 18.9372 45.4246 19.8316 45.709 20.5949C45.9934 21.3584 46.4049 21.9533 46.9438 22.3799C47.4827 22.7991 48.1376 23.0086 48.9084 23.0086C49.6867 23.0086 50.3454 22.7953 50.8843 22.3688C51.4231 21.9346 51.831 21.3359 52.1079 20.5725C52.3923 19.8017 52.5345 18.9148 52.5345 17.9119C52.5345 16.9165 52.3961 16.0408 52.1191 15.285C51.8423 14.5291 51.4343 13.9378 50.8954 13.5111C50.3566 13.0846 49.6943 12.8713 48.9084 12.8713C48.13 12.8713 47.4715 13.0771 46.9326 13.4888C46.4013 13.9003 45.9934 14.4841 45.709 15.24C45.4246 15.9959 45.2823 16.8866 45.2823 17.9119ZM59.6577 26.5337V9.29019H64.2942V12.2988H64.4739C64.7882 11.2286 65.3158 10.4202 66.0567 9.87394C66.7977 9.3201 67.6509 9.04312 68.6163 9.04312C68.8558 9.04312 69.1141 9.05807 69.3909 9.08811C69.6678 9.11802 69.9111 9.15911 70.1206 9.21152V13.4551C69.8961 13.3877 69.5855 13.3278 69.1888 13.2755C68.7922 13.2231 68.4292 13.1968 68.0999 13.1968C67.3964 13.1968 66.7678 13.3503 66.2139 13.6572C65.6675 13.9565 65.2334 14.3756 64.9117 14.9145C64.5973 15.4534 64.4402 16.0745 64.4402 16.778V26.5337H59.6577ZM78.7005 26.8705C76.9267 26.8705 75.4 26.5112 74.1202 25.7927C72.8479 25.0667 71.8674 24.0415 71.1789 22.7167C70.4903 21.3845 70.1461 19.8091 70.1461 17.9905C70.1461 16.2167 70.4903 14.66 71.1789 13.3204C71.8674 11.9807 72.8366 10.9366 74.0866 10.1882C75.3439 9.43986 76.8183 9.06561 78.5097 9.06561C79.6473 9.06561 80.7062 9.24897 81.6867 9.61568C82.6746 9.97498 83.5352 10.5175 84.2688 11.2435C85.0096 11.9695 85.5859 12.8825 85.9975 13.9827C86.4092 15.0754 86.6149 16.3552 86.6149 17.8221V19.1356H72.0546V16.1719H82.1132C82.1132 15.4833 81.9636 14.8733 81.6642 14.342C81.3649 13.8106 80.9495 13.3951 80.4182 13.0958C79.8942 12.789 79.2842 12.6356 78.5883 12.6356C77.8622 12.6356 77.2187 12.804 76.6573 13.1408C76.1035 13.47 75.6694 13.9153 75.3551 14.4767C75.0408 15.0305 74.8798 15.6479 74.8724 16.329V19.1468C74.8724 20 75.0295 20.7372 75.3439 21.3584C75.6656 21.9796 76.1184 22.4585 76.7022 22.7953C77.286 23.1321 77.9783 23.3005 78.779 23.3005C79.3105 23.3005 79.797 23.2256 80.2385 23.0759C80.6801 22.9262 81.058 22.7018 81.3724 22.4023C81.6867 22.103 81.9261 21.7363 82.0909 21.3022L86.5139 21.5941C86.2894 22.6568 85.8291 23.5849 85.1331 24.3781C84.4446 25.1641 83.5539 25.7777 82.4613 26.2194C81.376 26.6534 80.1225 26.8705 78.7005 26.8705ZM93.5698 3.54231V26.5337H88.7875V3.54231H93.5698ZM96.4524 26.5337V9.29019H101.235V26.5337H96.4524ZM98.8548 7.06734C98.1439 7.06734 97.5339 6.83159 97.025 6.36009C96.5236 5.88111 96.2729 5.30857 96.2729 4.64247C96.2729 3.98387 96.5236 3.41881 97.025 2.94732C97.5339 2.46833 98.1439 2.22884 98.8548 2.22884C99.5658 2.22884 100.172 2.46833 100.674 2.94732C101.182 3.41881 101.437 3.98387 101.437 4.64247C101.437 5.30857 101.182 5.88111 100.674 6.36009C100.172 6.83159 99.5658 7.06734 98.8548 7.06734ZM108.9 16.5647V26.5337H104.117V9.29019H108.675V12.3325H108.877C109.259 11.3296 109.899 10.5362 110.797 9.95248C111.695 9.3612 112.784 9.06561 114.064 9.06561C115.261 9.06561 116.305 9.32752 117.196 9.85144C118.086 10.3754 118.779 11.1237 119.273 12.0967C119.767 13.0621 120.014 14.2147 120.014 15.5543V26.5337H115.231V16.4076C115.239 15.3524 114.969 14.5291 114.423 13.9378C113.877 13.3391 113.125 13.0397 112.167 13.0397C111.523 13.0397 110.954 13.1781 110.46 13.4551C109.974 13.7319 109.592 14.1361 109.315 14.6675C109.046 15.1914 108.907 15.8238 108.9 16.5647ZM130.693 26.8705C128.919 26.8705 127.393 26.5112 126.112 25.7927C124.841 25.0667 123.859 24.0415 123.171 22.7167C122.483 21.3845 122.139 19.8091 122.139 17.9905C122.139 16.2167 122.483 14.66 123.171 13.3204C123.859 11.9807 124.828 10.9366 126.078 10.1882C127.337 9.43986 128.81 9.06561 130.502 9.06561C131.64 9.06561 132.699 9.24897 133.679 9.61568C134.667 9.97498 135.527 10.5175 136.261 11.2435C137.002 11.9695 137.578 12.8825 137.99 13.9827C138.401 15.0754 138.607 16.3552 138.607 17.8221V19.1356H124.047V16.1719H134.106C134.106 15.4833 133.956 14.8733 133.657 14.342C133.357 13.8106 132.942 13.3951 132.411 13.0958C131.887 12.789 131.276 12.6356 130.581 12.6356C129.855 12.6356 129.211 12.804 128.65 13.1408C128.096 13.47 127.661 13.9153 127.348 14.4767C127.033 15.0305 126.872 15.6479 126.865 16.329V19.1468C126.865 20 127.022 20.7372 127.337 21.3584C127.658 21.9796 128.111 22.4585 128.695 22.7953C129.279 23.1321 129.97 23.3005 130.772 23.3005C131.303 23.3005 131.789 23.2256 132.231 23.0759C132.672 22.9262 133.05 22.7018 133.365 22.4023C133.679 22.103 133.918 21.7363 134.084 21.3022L138.506 21.5941C138.282 22.6568 137.821 23.5849 137.126 24.3781C136.437 25.1641 135.547 25.7777 134.453 26.2194C133.369 26.6534 132.115 26.8705 130.693 26.8705Z" fill="#6A7282"/>
<path d="M1 31.3972V15.5907C1 7.53245 7.53245 1 15.5907 1C23.6488 1 30.1813 7.53245 30.1813 15.5907C30.1813 23.6488 23.6488 30.1813 15.5907 30.1813H14.3748" stroke="#6A7282" stroke-width="2"/>
<path d="M5.86353 31.3972V15.7852C5.86353 10.3056 10.2185 5.86356 15.5906 5.86356C20.9628 5.86356 25.3177 10.3056 25.3177 15.7852C25.3177 21.2647 20.9628 25.7069 15.5906 25.7069H14.3747" stroke="#6A7282" stroke-width="2"/>
<path d="M15.5907 21.6961C18.9482 21.6961 21.6701 18.9743 21.6701 15.6167C21.6701 12.2591 18.9482 9.53726 15.5907 9.53726C12.2331 9.53726 9.51123 12.2591 9.51123 15.6167C9.51123 18.9743 12.2331 21.6961 15.5907 21.6961Z" fill="#6A7282"/>
</svg>