<svg width="198" height="32" viewBox="0 0 198 32" fill="none" xmlns="http://www.w3.org/2000/svg">
<path d="M95.7049 32C99.8174 32 103.151 28.676 103.151 24.5757C103.151 20.4754 99.8174 17.1514 95.7049 17.1514C91.5924 17.1514 88.2586 20.4754 88.2586 24.5757C88.2586 28.676 91.5924 32 95.7049 32Z" fill="#6A7282"/>
<path d="M22.3032 25.5716L17.7552 8.76689L13.1536 25.5716C12.7969 26.843 12.5116 27.7588 12.2975 28.319C12.0835 28.8702 11.7179 29.3682 11.1917 29.8127C10.6656 30.2484 9.97 30.4707 9.10499 30.4707C8.40049 30.4707 7.82083 30.3373 7.36603 30.0795C6.91123 29.8216 6.5456 29.4482 6.26024 28.9681C5.97487 28.4879 5.75192 27.9189 5.57357 27.2698C5.39522 26.6118 5.2347 26.0072 5.09201 25.4471L0.419132 6.56183C0.133766 5.46819 0 4.63241 0 4.05447C0 3.32538 0.258614 2.71187 0.766923 2.22285C1.27523 1.72493 1.90839 1.47597 2.6664 1.47597C3.70085 1.47597 4.39643 1.80495 4.75314 2.4718C5.10985 3.13866 5.42197 4.09892 5.6895 5.3615L9.37252 21.7305L13.4925 6.41068C13.7957 5.23702 14.0722 4.34788 14.3129 3.73438C14.5537 3.12087 14.955 2.59628 15.499 2.14283C16.0519 1.69826 16.801 1.47597 17.7462 1.47597C18.7094 1.47597 19.4495 1.70715 19.9846 2.17839C20.5107 2.64074 20.8853 3.14755 21.0904 3.69881C21.2955 4.25008 21.5719 5.1481 21.9108 6.41068L26.0754 21.7305L29.7584 5.35261C29.9368 4.49904 30.1062 3.83218 30.2667 3.34316C30.4272 2.86303 30.7037 2.42735 31.0871 2.04502C31.4795 1.66269 32.0413 1.46708 32.7815 1.46708C33.5217 1.46708 34.1548 1.71604 34.6721 2.20506C35.1893 2.69409 35.4479 3.30759 35.4479 4.05447C35.4479 4.57906 35.3052 5.41484 35.0288 6.56183L30.347 25.4382C30.0259 26.7096 29.7584 27.6432 29.5533 28.239C29.3393 28.8347 28.9826 29.3504 28.4832 29.7949C27.9749 30.2395 27.2614 30.4618 26.3429 30.4618C25.469 30.4618 24.7734 30.2484 24.2562 29.8127C23.73 29.377 23.3644 28.888 23.1593 28.3457C22.9631 27.8122 22.6688 26.8786 22.3032 25.5716ZM51.8565 21.1348H41.619C41.6279 22.3173 41.8687 23.3665 42.3413 24.2734C42.805 25.1803 43.4293 25.865 44.2051 26.3184C44.9809 26.7808 45.8281 27.0031 46.7645 27.0031C47.3887 27.0031 47.9595 26.9319 48.4767 26.7808C48.9939 26.6385 49.4933 26.4073 49.9838 26.0961C50.4653 25.7849 50.9201 25.4471 51.3304 25.0914C51.7406 24.7358 52.2667 24.2467 52.9266 23.6421C53.1942 23.411 53.5776 23.2954 54.077 23.2954C54.6121 23.2954 55.049 23.4376 55.379 23.731C55.709 24.0245 55.8784 24.4423 55.8784 24.9758C55.8784 25.4471 55.6911 25.9983 55.3255 26.6296C54.9509 27.2609 54.3981 27.8655 53.649 28.4435C52.8999 29.0214 51.9635 29.5015 50.831 29.8839C49.6984 30.2662 48.3964 30.4618 46.925 30.4618C43.563 30.4618 40.9501 29.5015 39.0774 27.5899C37.2047 25.6871 36.2683 23.0909 36.2683 19.81C36.2683 18.2717 36.5002 16.8402 36.955 15.5154C37.4187 14.1995 38.0876 13.0614 38.9704 12.1189C39.8533 11.1764 40.9412 10.4562 42.2343 9.94944C43.5274 9.44263 44.9542 9.19367 46.5326 9.19367C48.5748 9.19367 50.3316 9.62046 51.7941 10.4829C53.2566 11.3454 54.3535 12.4568 55.0847 13.8172C55.816 15.1776 56.1816 16.5735 56.1816 17.9872C56.1816 19.3031 55.807 20.1478 55.049 20.539C54.291 20.9392 53.2298 21.1348 51.8565 21.1348ZM41.619 18.1651H51.1163C50.9915 16.3779 50.5099 15.0442 49.6717 14.155C48.8334 13.2659 47.7276 12.8302 46.3632 12.8302C45.0612 12.8302 43.9911 13.2837 43.1528 14.1817C42.3056 15.0797 41.7973 16.4135 41.619 18.1651ZM64.5642 4.45458V12.4301C65.5452 11.4076 66.5529 10.6341 67.5784 10.0917C68.604 9.54933 69.8703 9.28259 71.3774 9.28259C73.1163 9.28259 74.6413 9.69159 75.9522 10.5185C77.2631 11.3365 78.2797 12.5368 79.002 14.0928C79.7244 15.6577 80.09 17.5071 80.09 19.6499C80.09 21.2326 79.8849 22.6819 79.4836 23.9978C79.0823 25.3137 78.4937 26.4607 77.7268 27.4298C76.9599 28.399 76.0324 29.1459 74.9355 29.6794C73.8387 30.2128 72.6348 30.4707 71.3239 30.4707C70.5213 30.4707 69.7633 30.3729 69.0499 30.1862C68.3364 29.9906 67.739 29.7416 67.2396 29.4304C66.7402 29.1192 66.3121 28.7991 65.9643 28.4612C65.6165 28.1323 65.1528 27.6343 64.5732 26.9675V27.4832C64.5732 28.4612 64.3324 29.2081 63.8597 29.7149C63.3871 30.2217 62.7896 30.4707 62.0584 30.4707C61.3182 30.4707 60.7296 30.2217 60.2837 29.7149C59.8468 29.2081 59.6238 28.4701 59.6238 27.4832V4.68575C59.6238 3.62768 59.8379 2.82746 60.2659 2.28509C60.694 1.74271 61.2914 1.47597 62.0584 1.47597C62.861 1.47597 63.4852 1.73382 63.9222 2.24952C64.3502 2.76522 64.5642 3.5032 64.5642 4.45458ZM64.8139 19.97C64.8139 22.0506 65.2866 23.6421 66.2408 24.7624C67.195 25.8827 68.4434 26.434 69.9862 26.434C71.306 26.434 72.4386 25.865 73.3928 24.7269C74.347 23.5888 74.8196 21.9528 74.8196 19.8188C74.8196 18.4407 74.6234 17.2581 74.2221 16.2623C73.8297 15.2665 73.259 14.5018 72.5367 13.9594C71.8054 13.4171 70.9582 13.1503 69.9862 13.1503C68.9874 13.1503 68.0957 13.4171 67.3198 13.9594C66.544 14.5018 65.9287 15.2843 65.4828 16.3156C65.0369 17.3293 64.8139 18.5474 64.8139 19.97Z" fill="#6A7282"/>
<path d="M131.581 17.9961H129.583V27.0031C129.583 28.1856 129.325 29.0659 128.799 29.626C128.272 30.1862 127.595 30.4707 126.747 30.4707C125.838 30.4707 125.133 30.1773 124.634 29.5904C124.135 29.0036 123.885 28.1412 123.885 27.012V5.43263C123.885 4.20562 124.161 3.32538 124.705 2.77411C125.258 2.22285 126.141 1.95611 127.372 1.95611H136.637C137.912 1.95611 139.009 2.00946 139.919 2.11615C140.829 2.22285 141.649 2.44513 142.371 2.77411C143.254 3.14755 144.03 3.67214 144.708 4.36567C145.385 5.0503 145.903 5.85053 146.251 6.76634C146.598 7.68214 146.777 8.64241 146.777 9.66492C146.777 11.7544 146.188 13.426 145.002 14.6708C143.816 15.9244 142.024 16.8047 139.625 17.3293C140.632 17.8627 141.604 18.6541 142.523 19.7033C143.441 20.7524 144.262 21.8639 144.984 23.0375C145.707 24.2201 146.268 25.2781 146.67 26.2295C147.071 27.1809 147.276 27.83 147.276 28.1856C147.276 28.5591 147.16 28.9236 146.919 29.2881C146.679 29.6527 146.358 29.9372 145.947 30.1506C145.537 30.364 145.064 30.4618 144.529 30.4618C143.887 30.4618 143.352 30.3107 142.915 30.0083C142.478 29.706 142.104 29.3326 141.792 28.8703C141.48 28.4079 141.051 27.7322 140.516 26.843L138.233 23.0553C137.413 21.6682 136.682 20.6102 136.04 19.8811C135.398 19.152 134.738 18.6541 134.078 18.3873C133.427 18.1295 132.589 17.9961 131.581 17.9961ZM134.836 6.21507H129.583V13.9239H134.684C136.049 13.9239 137.199 13.8083 138.135 13.5682C139.072 13.3282 139.785 12.928 140.276 12.3679C140.766 11.7988 141.016 11.0164 141.016 10.0295C141.016 9.25591 140.82 8.56239 140.418 7.97556C140.026 7.37984 139.473 6.94416 138.769 6.65075C138.109 6.35733 136.798 6.21507 134.836 6.21507ZM169.615 6.64186H163.399V27.0031C163.399 28.1767 163.141 29.0481 162.615 29.6171C162.088 30.1862 161.411 30.4707 160.581 30.4707C159.734 30.4707 159.047 30.1862 158.521 29.6082C157.986 29.0303 157.728 28.1678 157.728 27.012V6.65075H151.512C150.54 6.65075 149.818 6.43735 149.345 6.01057C148.872 5.58378 148.632 5.02363 148.632 4.32121C148.632 3.59212 148.881 3.02307 149.372 2.59629C149.862 2.17839 150.576 1.965 151.512 1.965H169.615C170.596 1.965 171.327 2.17839 171.809 2.61407C172.29 3.04975 172.531 3.61879 172.531 4.31232C172.531 5.01474 172.29 5.57489 171.8 6.00168C171.318 6.42846 170.587 6.64186 169.615 6.64186ZM198 21.1348C198 22.0239 197.777 22.9931 197.34 24.0333C196.903 25.0736 196.208 26.0961 195.262 27.092C194.317 28.0967 193.104 28.9058 191.642 29.5282C190.17 30.1506 188.458 30.4618 186.505 30.4618C185.025 30.4618 183.669 30.3195 182.456 30.0439C181.244 29.7683 180.138 29.3237 179.148 28.7369C178.158 28.1412 177.248 27.3676 176.419 26.3985C175.679 25.5182 175.046 24.5313 174.52 23.4465C173.994 22.3529 173.601 21.197 173.343 19.9611C173.084 18.7252 172.95 17.4093 172.95 16.0222C172.95 13.7638 173.28 11.7455 173.94 9.95833C174.6 8.17117 175.545 6.65075 176.767 5.37928C177.998 4.10782 179.433 3.14755 181.083 2.4807C182.733 1.81385 184.49 1.48487 186.353 1.48487C188.627 1.48487 190.652 1.93833 192.435 2.84525C194.21 3.75216 195.574 4.87247 196.52 6.19729C197.465 7.53099 197.938 8.78467 197.938 9.97611C197.938 10.6252 197.706 11.2031 197.251 11.701C196.787 12.199 196.234 12.4479 195.583 12.4479C194.852 12.4479 194.308 12.279 193.942 11.9322C193.577 11.5855 193.176 10.9986 192.721 10.1539C191.981 8.76689 191.107 7.7266 190.099 7.03308C189.091 6.34844 187.861 6.00168 186.389 6.00168C184.053 6.00168 182.189 6.89081 180.798 8.66019C179.407 10.4296 178.72 12.9547 178.72 16.2178C178.72 18.3962 179.023 20.2101 179.638 21.6594C180.254 23.1086 181.119 24.1845 182.242 24.9047C183.366 25.616 184.686 25.9717 186.193 25.9717C187.834 25.9717 189.216 25.5716 190.349 24.7536C191.481 23.9444 192.337 22.753 192.908 21.1881C193.149 20.4501 193.452 19.8455 193.809 19.3832C194.165 18.9208 194.745 18.6808 195.539 18.6808C196.216 18.6808 196.796 18.9208 197.287 19.3921C197.759 19.8455 198 20.4324 198 21.1348Z" fill="#6A7282"/>
<path d="M110.419 21.6149C114.532 21.6149 117.865 18.2909 117.865 14.1906C117.865 10.0903 114.532 6.76634 110.419 6.76634C106.307 6.76634 102.973 10.0903 102.973 14.1906C102.973 18.2909 106.307 21.6149 110.419 21.6149Z" fill="#6A7282"/>
<path d="M92.227 21.446C96.3395 21.446 99.6733 18.122 99.6733 14.0217C99.6733 9.92136 96.3395 6.5974 92.227 6.5974C88.1145 6.5974 84.7807 9.92136 84.7807 14.0217C84.7807 18.122 88.1145 21.446 92.227 21.446Z" fill="#6A7282"/>
<path d="M107.111 32C111.223 32 114.557 28.676 114.557 24.5757C114.557 20.4754 111.223 17.1514 107.111 17.1514C102.998 17.1514 99.6644 20.4754 99.6644 24.5757C99.6644 28.676 102.998 32 107.111 32Z" fill="#6A7282"/>
<path d="M101.323 14.8486C105.436 14.8486 108.769 11.5246 108.769 7.42428C108.769 3.32397 105.436 0 101.323 0C97.2106 0 93.8768 3.32397 93.8768 7.42428C93.8768 11.5246 97.2106 14.8486 101.323 14.8486Z" fill="#6A7282"/>
<path d="M102.982 14.1906C102.982 14.3507 103 14.5018 103.009 14.653C106.308 13.8972 108.769 10.9542 108.769 7.43319C108.769 7.27314 108.752 7.12199 108.743 6.97083C105.443 7.7266 102.982 10.6696 102.982 14.1906Z" fill="#6A7282"/>
<path d="M103.963 17.8627C105.247 20.0945 107.655 21.606 110.419 21.606C111.552 21.606 112.613 21.3482 113.567 20.9036C112.283 18.6719 109.875 17.1603 107.111 17.1603C105.987 17.1603 104.917 17.4093 103.963 17.8627Z" fill="#6A7282"/>
<path d="M99.6733 24.5757C99.6733 26.3896 100.324 28.0433 101.412 29.3326C102.491 28.0433 103.151 26.3807 103.151 24.5757C103.151 22.7619 102.5 21.1081 101.412 19.8188C100.324 21.1081 99.6733 22.7619 99.6733 24.5757Z" fill="#6A7282"/>
<path d="M89.2842 20.8325C90.1848 21.2237 91.1836 21.4371 92.227 21.4371C94.9647 21.4371 97.3547 19.9522 98.6478 17.756C97.7471 17.3648 96.7483 17.1514 95.7049 17.1514C92.9583 17.1603 90.5772 18.6363 89.2842 20.8325Z" fill="#6A7282"/>
<path d="M93.9125 6.8019C93.8946 7.0064 93.8768 7.21978 93.8768 7.42428C93.8768 10.9453 96.3381 13.8794 99.6376 14.6441C99.6555 14.4396 99.6733 14.2262 99.6733 14.0217C99.6733 10.5007 97.212 7.56655 93.9125 6.8019Z" fill="#6A7282"/>
<path d="M94.608 23.6599H93.4398C92.4143 23.6599 91.576 22.833 91.576 21.8105V11.3009C91.576 10.2784 92.4143 9.45152 93.4398 9.45152H108.038C109.064 9.45152 109.902 10.2873 109.902 11.3009V21.8016C109.902 22.8241 109.064 23.651 108.038 23.651H103.062L93.0831 28.5235L94.608 23.6599Z" fill="white"/>
</svg>
